<svg width="780" height="220" viewBox="0 0 780 220" fill="none" xmlns="http://www.w3.org/2000/svg" role="img" aria-label="FAN Capital">
  <defs>
    <linearGradient id="fanGreen" x1="0" y1="0" x2="1" y2="1">
      <stop offset="0" stop-color="#22c55e"/>
      <stop offset="1" stop-color="#16a34a"/>
    </linearGradient>
    <linearGradient id="fanWhite" x1="0" y1="0" x2="1" y2="1">
      <stop offset="0" stop-color="#ffffff"/>
      <stop offset="1" stop-color="#e5e7eb"/>
    </linearGradient>
  </defs>

  <!-- wordmark -->
  <text x="40" y="125" font-family="Inter, system-ui, -apple-system, Segoe UI, Roboto, Arial, sans-serif" font-size="88" font-weight="800" fill="url(#fanWhite)" letter-spacing="1">
    FAN
  </text>
  <text x="255" y="125" font-family="Inter, system-ui, -apple-system, Segoe UI, Roboto, Arial, sans-serif" font-size="78" font-weight="700" fill="url(#fanWhite)" opacity="0.95">
    Capital
  </text>

  <!-- financial momentum arrow -->
  <path d="M650 64C632 82 614 99 596 117C591 122 583 122 578 117C573 112 573 104 578 99C603 74 628 49 653 24C658 19 666 19 671 24L744 97C749 102 749 110 744 115C739 120 731 120 726 115L682 71V152C682 160 676 166 668 166C660 166 654 160 654 152V71L650 64Z" fill="url(#fanGreen)"/>

  <!-- subtle underline -->
  <path d="M44 160H510" stroke="rgba(255,255,255,0.20)" stroke-width="6" stroke-linecap="round"/>
</svg>
